<svg width="24" height="24" viewBox="0 0 24 24" fill="none" xmlns="http://www.w3.org/2000/svg">
  <path d="M21.44 11.05L12.25 20.24C11.1223 21.3675 9.59414 21.9983 8 21.9983C6.40585 21.9983 4.87769 21.3675 3.75 20.24C2.63231 19.1123 2.00146 17.5842 2.00146 15.99C2.00146 14.3958 2.63231 12.8677 3.75 11.74L12.93 2.55C13.7106 1.76906 14.7681 1.33105 15.87 1.33105C16.9719 1.33105 18.0294 1.76906 18.81 2.55C19.5909 3.33061 20.029 4.38811 20.029 5.49C20.029 6.59189 19.5909 7.64939 18.81 8.43L9.63 17.61C9.23964 18.0004 8.70948 18.2199 8.16 18.2199C7.61052 18.2199 7.08036 18.0004 6.69 17.61C6.29955 17.2196 6.08004 16.6895 6.08004 16.14C6.08004 15.5905 6.29955 15.0604 6.69 14.67L15.13 6.22" stroke="currentColor" stroke-width="2" stroke-linecap="round" stroke-linejoin="round"/>
</svg> 