<svg width="120" height="120" viewBox="0 0 120 120" fill="none" xmlns="http://www.w3.org/2000/svg">
  <path d="M60 110C87.6142 110 110 87.6142 110 60C110 32.3858 87.6142 10 60 10C32.3858 10 10 32.3858 10 60C10 71.5326 14.2229 82.0961 21.3224 90.1863C22.2945 91.3109 22.6137 92.8504 22.1595 94.2453L18.2973 105.703C17.6804 107.583 19.2554 109.39 21.1982 109.009L33.9709 106.31C35.4375 106.02 36.9406 106.44 38.0235 107.39C44.4688 113.038 52.9046 116.667 62.1429 116.667C83.7276 116.667 101.429 99.2839 101.429 77.9167C101.429 57.7546 85.7143 41.25 66.4286 41.25" stroke="#C8A45D" stroke-width="4" stroke-linecap="round" stroke-linejoin="round"/>
  <path d="M60 61.6667V61.6984" stroke="#C8A45D" stroke-width="5" stroke-linecap="round" stroke-linejoin="round"/>
  <path d="M40 61.6667V61.6984" stroke="#C8A45D" stroke-width="5" stroke-linecap="round" stroke-linejoin="round"/>
  <path d="M80 61.6667V61.6984" stroke="#C8A45D" stroke-width="5" stroke-linecap="round" stroke-linejoin="round"/>
</svg> 