<svg width="20" height="20" viewBox="0 0 20 20" fill="none" xmlns="http://www.w3.org/2000/svg">
<path d="M7.8916 12.7333C7.73327 12.7333 7.57493 12.675 7.44993 12.55C6.7666 11.8667 6.3916 10.9583 6.3916 10C6.3916 8.00833 8.00827 6.39166 9.99993 6.39166C10.9583 6.39166 11.8666 6.76666 12.5499 7.45C12.6666 7.56666 12.7333 7.725 12.7333 7.89166C12.7333 8.05833 12.6666 8.21666 12.5499 8.33333L8.33327 12.55C8.20827 12.675 8.04993 12.7333 7.8916 12.7333ZM9.99993 7.64166C8.69993 7.64166 7.6416 8.7 7.6416 10C7.6416 10.4167 7.74993 10.8167 7.94993 11.1667L11.1666 7.95C10.8166 7.75 10.4166 7.64166 9.99993 7.64166Z" fill="#BFBFBF"/>
<path d="M4.66678 15.425C4.52511 15.425 4.37511 15.375 4.25845 15.275C3.36678 14.5167 2.56678 13.5833 1.88345 12.5C1.00011 11.125 1.00011 8.88334 1.88345 7.5C3.91678 4.31667 6.87511 2.48334 10.0001 2.48334C11.8334 2.48334 13.6418 3.11667 15.2251 4.30834C15.5001 4.51667 15.5584 4.90834 15.3501 5.18334C15.1418 5.45834 14.7501 5.51667 14.4751 5.30834C13.1084 4.275 11.5584 3.73334 10.0001 3.73334C7.30845 3.73334 4.73345 5.35 2.93345 8.175C2.30845 9.15 2.30845 10.85 2.93345 11.825C3.55845 12.8 4.27511 13.6417 5.06678 14.325C5.32511 14.55 5.35845 14.9417 5.13345 15.2083C5.01678 15.35 4.84178 15.425 4.66678 15.425Z" fill="#BFBFBF"/>
<path d="M9.99989 17.5167C8.89156 17.5167 7.80822 17.2917 6.76656 16.85C6.44989 16.7167 6.29989 16.35 6.43322 16.0333C6.56656 15.7167 6.93322 15.5667 7.24989 15.7C8.13322 16.075 9.05822 16.2667 9.99156 16.2667C12.6832 16.2667 15.2582 14.65 17.0582 11.825C17.6832 10.85 17.6832 9.14999 17.0582 8.17499C16.7999 7.76666 16.5166 7.37499 16.2166 7.00833C15.9999 6.74166 16.0416 6.34999 16.3082 6.12499C16.5749 5.90833 16.9666 5.94166 17.1916 6.21666C17.5166 6.61666 17.8332 7.04999 18.1166 7.49999C18.9999 8.87499 18.9999 11.1167 18.1166 12.5C16.0832 15.6833 13.1249 17.5167 9.99989 17.5167Z" fill="#BFBFBF"/>
<path d="M10.5749 13.5583C10.2832 13.5583 10.0166 13.35 9.95824 13.05C9.89157 12.7083 10.1166 12.3833 10.4582 12.325C11.3749 12.1583 12.1416 11.3917 12.3082 10.475C12.3749 10.1333 12.6999 9.91666 13.0416 9.975C13.3832 10.0417 13.6082 10.3667 13.5416 10.7083C13.2749 12.15 12.1249 13.2917 10.6916 13.5583C10.6499 13.55 10.6166 13.5583 10.5749 13.5583Z" fill="#BFBFBF"/>
<path d="M1.66662 18.9583C1.50828 18.9583 1.34995 18.9 1.22495 18.775C0.983285 18.5333 0.983285 18.1333 1.22495 17.8917L7.44995 11.6667C7.69162 11.425 8.09162 11.425 8.33328 11.6667C8.57495 11.9083 8.57495 12.3083 8.33328 12.55L2.10828 18.775C1.98328 18.9 1.82495 18.9583 1.66662 18.9583Z" fill="#BFBFBF"/>
<path d="M12.1083 8.51666C11.9499 8.51666 11.7916 8.45833 11.6666 8.33333C11.4249 8.09166 11.4249 7.69166 11.6666 7.45L17.8916 1.225C18.1333 0.98333 18.5333 0.98333 18.7749 1.225C19.0166 1.46666 19.0166 1.86666 18.7749 2.10833L12.5499 8.33333C12.4249 8.45833 12.2666 8.51666 12.1083 8.51666Z" fill="#BFBFBF"/>
</svg>
