<svg width="44" height="44" viewBox="0 0 44 44" fill="none" xmlns="http://www.w3.org/2000/svg">
<circle cx="22" cy="22" r="22" fill="#EEE3CD"/>
<path d="M25 32.75H19C13.57 32.75 11.25 30.43 11.25 25V19C11.25 13.57 13.57 11.25 19 11.25H24C24.41 11.25 24.75 11.59 24.75 12C24.75 12.41 24.41 12.75 24 12.75H19C14.39 12.75 12.75 14.39 12.75 19V25C12.75 29.61 14.39 31.25 19 31.25H25C29.61 31.25 31.25 29.61 31.25 25V20C31.25 19.59 31.59 19.25 32 19.25C32.41 19.25 32.75 19.59 32.75 20V25C32.75 30.43 30.43 32.75 25 32.75Z" fill="#C8A45D"/>
<path d="M32 20.75H28C24.58 20.75 23.25 19.42 23.25 16V12C23.25 11.7 23.43 11.42 23.71 11.31C23.99 11.19 24.31 11.26 24.53 11.47L32.53 19.47C32.74 19.68 32.81 20.01 32.69 20.29C32.57 20.57 32.3 20.75 32 20.75ZM24.75 13.81V16C24.75 18.58 25.42 19.25 28 19.25H30.19L24.75 13.81Z" fill="#C8A45D"/>
</svg>
