<svg width="30" height="30" viewBox="0 0 30 30" fill="none" xmlns="http://www.w3.org/2000/svg">
<path d="M17.3083 21.4584H12.7167C12.35 21.4584 11.8833 21.4167 11.575 21.1001C11.275 20.7917 11.2833 20.4084 11.2917 20.1501V19.4084C9.19168 18.0084 7.80835 15.5751 7.80835 13.2584C7.80835 11.0667 8.79168 9.01675 10.5 7.64175C12.2083 6.26675 14.45 5.75008 16.6417 6.23341C18.725 6.69175 20.525 8.08341 21.4584 9.95841C23.2667 13.6001 21.525 17.5417 18.7417 19.4167V20.0417C18.75 20.2834 18.7583 20.7251 18.4167 21.0751C18.1583 21.3251 17.7917 21.4584 17.3083 21.4584ZM12.5333 20.2001C12.575 20.2001 12.6333 20.2084 12.7083 20.2084H17.3083C17.3917 20.2084 17.45 20.2001 17.4833 20.1917C17.4833 20.1667 17.4833 20.1334 17.4833 20.1084V19.0584C17.4833 18.8417 17.6 18.6334 17.7833 18.5251C20.25 17.0334 21.8833 13.6251 20.325 10.5001C19.5583 8.95841 18.075 7.81675 16.3583 7.44175C14.5417 7.04175 12.6833 7.46675 11.2667 8.60841C9.85002 9.75008 9.04168 11.4417 9.04168 13.2584C9.04168 15.5751 10.6417 17.5751 12.225 18.5334C12.4167 18.6501 12.525 18.8501 12.525 19.0667V20.1917C12.5333 20.1917 12.5333 20.1917 12.5333 20.2001Z" fill="#C8A45D"/>
<path d="M17.9167 23.9583C17.8584 23.9583 17.8 23.95 17.7417 23.9333C15.9417 23.4166 14.05 23.4166 12.25 23.9333C11.9167 24.025 11.575 23.8333 11.475 23.5C11.375 23.1666 11.575 22.825 11.9084 22.725C13.925 22.15 16.0667 22.15 18.0834 22.725C18.4167 22.8166 18.6084 23.1666 18.5167 23.5C18.4417 23.7833 18.1917 23.9583 17.9167 23.9583Z" fill="#C8A45D"/>
<circle cx="15" cy="15" r="15" fill="#C8A45D" fill-opacity="0.2"/>
</svg>
