<svg width="20" height="20" viewBox="0 0 20 20" fill="none" xmlns="http://www.w3.org/2000/svg">
<path d="M9.99995 18.3333C14.5833 18.3333 18.3333 14.5833 18.3333 9.99999C18.3333 5.41666 14.5833 1.66666 9.99995 1.66666C5.41661 1.66666 1.66661 5.41666 1.66661 9.99999C1.66661 14.5833 5.41661 18.3333 9.99995 18.3333ZM9.99995 17.0833C6.12495 17.0833 2.91661 13.875 2.91661 9.99999C2.91661 6.12499 6.12495 2.91666 9.99995 2.91666C13.8749 2.91666 17.0833 6.12499 17.0833 9.99999C17.0833 13.875 13.8749 17.0833 9.99995 17.0833Z" fill="#C8A45D"/>
<path d="M9.99995 8.33334C10.4583 8.33334 10.8333 8.70834 10.8333 9.16667V13.3333C10.8333 13.7917 10.4583 14.1667 9.99995 14.1667C9.54161 14.1667 9.16661 13.7917 9.16661 13.3333V9.16667C9.16661 8.70834 9.54161 8.33334 9.99995 8.33334Z" fill="#C8A45D"/>
<path d="M9.99995 7.5C10.4916 7.5 10.8333 7.15833 10.8333 6.66667C10.8333 6.175 10.4916 5.83333 9.99995 5.83333C9.50828 5.83333 9.16661 6.175 9.16661 6.66667C9.16661 7.15833 9.50828 7.5 9.99995 7.5Z" fill="#C8A45D"/>
</svg> 