<svg width="20" height="20" viewBox="0 0 20 20" fill="none" xmlns="http://www.w3.org/2000/svg">
<path d="M12.3086 16.4583H7.71693C7.35026 16.4583 6.88359 16.4166 6.57526 16.1C6.27526 15.7916 6.28359 15.4083 6.29193 15.15V14.4083C4.19193 13.0083 2.80859 10.575 2.80859 8.25829C2.80859 6.06662 3.79193 4.01662 5.50026 2.64162C7.20859 1.26662 9.45026 0.749958 11.6419 1.23329C13.7253 1.69162 15.5253 3.08329 16.4586 4.95829C18.2669 8.59996 16.5253 12.5416 13.7419 14.4166V15.0416C13.7503 15.2833 13.7586 15.725 13.4169 16.075C13.1586 16.325 12.7919 16.4583 12.3086 16.4583ZM7.53359 15.2C7.57526 15.2 7.63359 15.2083 7.70859 15.2083H12.3086C12.3919 15.2083 12.4503 15.2 12.4836 15.1916C12.4836 15.1666 12.4836 15.1333 12.4836 15.1083V14.0583C12.4836 13.8416 12.6003 13.6333 12.7836 13.525C15.2503 12.0333 16.8836 8.62496 15.3253 5.49996C14.5586 3.95829 13.0753 2.81662 11.3586 2.44162C9.54193 2.04162 7.68359 2.46662 6.26693 3.60829C4.85026 4.74996 4.04193 6.44162 4.04193 8.25829C4.04193 10.575 5.64193 12.575 7.22526 13.5333C7.41693 13.65 7.52526 13.85 7.52526 14.0666V15.1916C7.53359 15.1916 7.53359 15.1916 7.53359 15.2Z" fill="#C8A45D"/>
<path d="M12.9167 18.9583C12.8584 18.9583 12.8 18.95 12.7417 18.9333C10.9417 18.4166 9.05005 18.4166 7.25005 18.9333C6.91672 19.025 6.57505 18.8333 6.47505 18.5C6.37505 18.1666 6.57505 17.825 6.90838 17.725C8.92505 17.15 11.0667 17.15 13.0834 17.725C13.4167 17.8166 13.6084 18.1666 13.5167 18.5C13.4417 18.7833 13.1917 18.9583 12.9167 18.9583Z" fill="#C8A45D"/>
</svg>
