<svg width="20" height="20" viewBox="0 0 20 20" fill="none" xmlns="http://www.w3.org/2000/svg">
<path d="M7.41663 18.3334H12.5833C16.6666 18.3334 18.3333 16.6667 18.3333 12.5834V7.41669C18.3333 3.33335 16.6666 1.66669 12.5833 1.66669H7.41663C3.33329 1.66669 1.66663 3.33335 1.66663 7.41669V12.5834C1.66663 16.6667 3.33329 18.3334 7.41663 18.3334ZM7.41663 17.0834C4.16663 17.0834 2.91663 15.8334 2.91663 12.5834V7.41669C2.91663 4.16669 4.16663 2.91669 7.41663 2.91669H12.5833C15.8333 2.91669 17.0833 4.16669 17.0833 7.41669V12.5834C17.0833 15.8334 15.8333 17.0834 12.5833 17.0834H7.41663Z" fill="#C8A45D"/>
<path d="M13.35 11.6334L15.5167 9.46667C15.7834 9.2 15.7834 8.78333 15.5167 8.51667L13.35 6.35C13.0834 6.08333 12.6667 6.08333 12.4 6.35C12.1334 6.61667 12.1334 7.03333 12.4 7.3L13.5167 8.41667H9.16669C8.80002 8.41667 8.50835 8.70833 8.50835 9.075C8.50835 9.44167 8.80002 9.73333 9.16669 9.73333H13.5167L12.4 10.85C12.1334 11.1167 12.1334 11.5333 12.4 11.8C12.525 11.925 12.7 12 12.875 12C13.05 12 13.225 11.9333 13.35 11.6334Z" fill="#C8A45D"/>
<path d="M8.5 4.99996C8.5 4.63329 8.20833 4.34162 7.84167 4.34162C7.475 4.34162 7.18333 4.63329 7.18333 4.99996V14.9166C7.18333 15.2833 7.475 15.575 7.84167 15.575C8.20833 15.575 8.5 15.2833 8.5 14.9166V4.99996Z" fill="#C8A45D"/>
</svg>
