<?xml version="1.0" encoding="utf-8"?>
<svg fill="none" height="235" viewBox="0 0 193 235" width="193" xmlns="http://www.w3.org/2000/svg"><defs>
<linearGradient gradientUnits="userSpaceOnUse" id="paint0_linear_548_3561" x1="77.4575" x2="115.56" y1="45.1753" y2="45.1753">
<stop stop-color="#C4A15B"/>
<stop offset="0.29" stop-color="#C6A35D"/>
<stop offset="0.39" stop-color="#CDA964"/>
<stop offset="0.47" stop-color="#D8B36F"/>
<stop offset="0.5" stop-color="#E0BA77"/>
<stop offset="0.53" stop-color="#D8B36F"/>
<stop offset="0.61" stop-color="#CDA964"/>
<stop offset="0.71" stop-color="#C6A35D"/>
<stop offset="1" stop-color="#C4A15B"/>
</linearGradient>
<linearGradient gradientUnits="userSpaceOnUse" id="paint1_linear_548_3561" x1="64.9332" x2="128.084" y1="31.1187" y2="31.1187">
<stop stop-color="#C4A15B"/>
<stop offset="0.29" stop-color="#C6A35D"/>
<stop offset="0.39" stop-color="#CDA964"/>
<stop offset="0.47" stop-color="#D8B36F"/>
<stop offset="0.5" stop-color="#E0BA77"/>
<stop offset="0.53" stop-color="#D8B36F"/>
<stop offset="0.61" stop-color="#CDA964"/>
<stop offset="0.71" stop-color="#C6A35D"/>
<stop offset="1" stop-color="#C4A15B"/>
</linearGradient>
<linearGradient gradientUnits="userSpaceOnUse" id="paint2_linear_548_3561" x1="89.8572" x2="103.164" y1="32.957" y2="32.957">
<stop stop-color="#C4A15B"/>
<stop offset="0.29" stop-color="#C6A35D"/>
<stop offset="0.39" stop-color="#CDA964"/>
<stop offset="0.47" stop-color="#D8B36F"/>
<stop offset="0.5" stop-color="#E0BA77"/>
<stop offset="0.53" stop-color="#D8B36F"/>
<stop offset="0.61" stop-color="#CDA964"/>
<stop offset="0.71" stop-color="#C6A35D"/>
<stop offset="1" stop-color="#C4A15B"/>
</linearGradient>
<linearGradient gradientUnits="userSpaceOnUse" id="paint3_linear_548_3561" x1="-1.50152e-05" x2="193" y1="53.5637" y2="53.5637">
<stop stop-color="#C4A15B"/>
<stop offset="0.29" stop-color="#C6A35D"/>
<stop offset="0.39" stop-color="#CDA964"/>
<stop offset="0.47" stop-color="#D8B36F"/>
<stop offset="0.5" stop-color="#E0BA77"/>
<stop offset="0.53" stop-color="#D8B36F"/>
<stop offset="0.61" stop-color="#CDA964"/>
<stop offset="0.71" stop-color="#C6A35D"/>
<stop offset="1" stop-color="#C4A15B"/>
</linearGradient>
<linearGradient gradientUnits="userSpaceOnUse" id="paint4_linear_548_3561" x1="77.3757" x2="115.478" y1="190.417" y2="190.417">
<stop stop-color="#C4A15B"/>
<stop offset="0.29" stop-color="#C6A35D"/>
<stop offset="0.39" stop-color="#CDA964"/>
<stop offset="0.47" stop-color="#D8B36F"/>
<stop offset="0.5" stop-color="#E0BA77"/>
<stop offset="0.53" stop-color="#D8B36F"/>
<stop offset="0.61" stop-color="#CDA964"/>
<stop offset="0.71" stop-color="#C6A35D"/>
<stop offset="1" stop-color="#C4A15B"/>
</linearGradient>
<linearGradient gradientUnits="userSpaceOnUse" id="paint5_linear_548_3561" x1="72.2821" x2="120.576" y1="200.522" y2="200.522">
<stop stop-color="#C4A15B"/>
<stop offset="0.29" stop-color="#C6A35D"/>
<stop offset="0.39" stop-color="#CDA964"/>
<stop offset="0.47" stop-color="#D8B36F"/>
<stop offset="0.5" stop-color="#E0BA77"/>
<stop offset="0.53" stop-color="#D8B36F"/>
<stop offset="0.61" stop-color="#CDA964"/>
<stop offset="0.71" stop-color="#C6A35D"/>
<stop offset="1" stop-color="#C4A15B"/>
</linearGradient>
<linearGradient gradientUnits="userSpaceOnUse" id="paint6_linear_548_3561" x1="77.4255" x2="115.56" y1="65.3857" y2="65.3857">
<stop stop-color="#C4A15B"/>
<stop offset="0.29" stop-color="#C6A35D"/>
<stop offset="0.39" stop-color="#CDA964"/>
<stop offset="0.47" stop-color="#D8B36F"/>
<stop offset="0.5" stop-color="#E0BA77"/>
<stop offset="0.53" stop-color="#D8B36F"/>
<stop offset="0.61" stop-color="#CDA964"/>
<stop offset="0.71" stop-color="#C6A35D"/>
<stop offset="1" stop-color="#C4A15B"/>
</linearGradient>
<linearGradient gradientUnits="userSpaceOnUse" id="paint7_linear_548_3561" x1="72.3319" x2="120.625" y1="55.2805" y2="55.2805">
<stop stop-color="#C4A15B"/>
<stop offset="0.29" stop-color="#C6A35D"/>
<stop offset="0.39" stop-color="#CDA964"/>
<stop offset="0.47" stop-color="#D8B36F"/>
<stop offset="0.5" stop-color="#E0BA77"/>
<stop offset="0.53" stop-color="#D8B36F"/>
<stop offset="0.61" stop-color="#CDA964"/>
<stop offset="0.71" stop-color="#C6A35D"/>
<stop offset="1" stop-color="#C4A15B"/>
</linearGradient>
<linearGradient gradientUnits="userSpaceOnUse" id="paint8_linear_548_3561" x1="77.4895" x2="115.528" y1="163.757" y2="163.757">
<stop stop-color="#C4A15B"/>
<stop offset="0.29" stop-color="#C6A35D"/>
<stop offset="0.39" stop-color="#CDA964"/>
<stop offset="0.47" stop-color="#D8B36F"/>
<stop offset="0.5" stop-color="#E0BA77"/>
<stop offset="0.53" stop-color="#D8B36F"/>
<stop offset="0.61" stop-color="#CDA964"/>
<stop offset="0.71" stop-color="#C6A35D"/>
<stop offset="1" stop-color="#C4A15B"/>
</linearGradient>
<linearGradient gradientUnits="userSpaceOnUse" id="paint9_linear_548_3561" x1="77.4895" x2="115.528" y1="120.145" y2="120.145">
<stop stop-color="#C4A15B"/>
<stop offset="0.29" stop-color="#C6A35D"/>
<stop offset="0.39" stop-color="#CDA964"/>
<stop offset="0.47" stop-color="#D8B36F"/>
<stop offset="0.5" stop-color="#E0BA77"/>
<stop offset="0.53" stop-color="#D8B36F"/>
<stop offset="0.61" stop-color="#CDA964"/>
<stop offset="0.71" stop-color="#C6A35D"/>
<stop offset="1" stop-color="#C4A15B"/>
</linearGradient>
<linearGradient gradientUnits="userSpaceOnUse" id="paint10_linear_548_3561" x1="80.7548" x2="100.735" y1="76.5438" y2="76.4517">
<stop stop-color="#C4A15B"/>
<stop offset="0.29" stop-color="#C6A35D"/>
<stop offset="0.39" stop-color="#CDA964"/>
<stop offset="0.47" stop-color="#D8B36F"/>
<stop offset="0.5" stop-color="#E0BA77"/>
<stop offset="0.53" stop-color="#D8B36F"/>
<stop offset="0.61" stop-color="#CDA964"/>
<stop offset="0.71" stop-color="#C6A35D"/>
<stop offset="1" stop-color="#C4A15B"/>
</linearGradient>
<clipPath id="clip0_548_3561">
<rect fill="white" height="235" width="193"/>
</clipPath>
</defs>
<g clip-path="url(#clip0_548_3561)">
<path d="M115.56 42.6481H77.4575V47.7025H115.56V42.6481Z" fill="url(#paint0_linear_548_3561)"/>
<path d="M97.1776 14.5563C96.9997 14.3793 96.7593 14.28 96.5088 14.28C96.2584 14.28 96.018 14.3793 95.8401 14.5563L65.168 44.6827C65.0955 44.7553 65.038 44.8416 64.9988 44.9365C64.9595 45.0314 64.9393 45.1332 64.9393 45.236C64.9393 45.3388 64.9595 45.4405 64.9988 45.5355C65.038 45.6304 65.0955 45.7166 65.168 45.7892L67.0532 47.7203C67.1253 47.7935 67.2112 47.8516 67.3058 47.8912C67.4005 47.9309 67.502 47.9513 67.6046 47.9513C67.7071 47.9513 67.8086 47.9309 67.9033 47.8912C67.9979 47.8516 68.0838 47.7935 68.1559 47.7203L96.5195 19.8784L124.887 47.7382C124.959 47.8109 125.045 47.8686 125.14 47.908C125.234 47.9474 125.336 47.9677 125.438 47.9677C125.54 47.9677 125.642 47.9474 125.736 47.908C125.831 47.8686 125.917 47.8109 125.989 47.7382L127.875 45.8071C127.947 45.7345 128.005 45.6483 128.044 45.5533C128.083 45.4584 128.103 45.3566 128.103 45.2538C128.103 45.1511 128.083 45.0493 128.044 44.9543C128.005 44.8594 127.947 44.7732 127.875 44.7006L97.1776 14.5563Z" fill="url(#paint1_linear_548_3561)"/>
<path d="M103.153 32.957C101.563 32.4075 100.128 31.4815 98.9691 30.2575C97.8106 29.0335 96.9631 27.5474 96.4982 25.9251C96.0341 27.5473 95.1873 29.0334 94.0294 30.2575C92.8716 31.4815 91.4368 32.4075 89.8466 32.957C91.438 33.5032 92.8746 34.4266 94.0344 35.6489C95.1943 36.8712 96.0431 38.3563 96.5088 39.9781C96.9737 38.3587 97.8201 36.8753 98.9766 35.6532C100.133 34.4312 101.566 33.5064 103.153 32.957Z" fill="url(#paint2_linear_548_3561)"/>
<path d="M192.214 94.7162H191.769L170.491 36.648C171.591 36.186 172.528 35.4023 173.178 34.399C173.828 33.3956 174.162 32.2191 174.137 31.0225C174.137 27.6922 171.647 25.5362 168.599 25.5362C165.55 25.5362 163.061 27.6779 163.061 31.0225C163.061 32.154 163.352 32.6644 163.85 33.5675C155.028 34.4726 146.129 32.8644 138.176 28.9272C136.084 27.892 134.078 26.9676 132.161 26.1323C129.656 18.4939 124.803 11.8485 118.3 7.1503C111.796 2.45206 103.977 -0.0573773 95.9633 -0.0177257C87.9501 0.0219258 80.1554 2.60863 73.6985 7.37099C67.2416 12.1334 62.4545 18.8264 60.0246 26.4892C58.3646 27.2317 56.6312 28.0455 54.8242 28.9308C46.8742 32.8585 37.9826 34.4605 29.1675 33.5532C29.6655 32.6502 29.9536 32.1254 29.9536 31.0082C29.9536 27.6779 27.4637 25.5219 24.4189 25.5219C21.3741 25.5219 18.8522 27.6922 18.8522 31.0225C18.8269 32.2191 19.1611 33.3956 19.8114 34.399C20.4616 35.4023 21.3978 36.186 22.4981 36.648L1.23071 94.7162H0.786085C0.640151 94.7157 0.496984 94.7562 0.372756 94.833C0.248529 94.9098 0.14819 95.02 0.0830738 95.1511C0.0179578 95.2822 -0.00934081 95.4289 0.00426162 95.5747C0.017864 95.7205 0.0718254 95.8596 0.160051 95.9762C5.30705 102.687 14.2138 107.127 24.3477 107.127C34.4817 107.127 43.3849 102.687 48.5354 95.9762C48.6237 95.8596 48.6776 95.7205 48.6912 95.5747C48.7048 95.4289 48.6775 95.2822 48.6124 95.1511C48.5473 95.02 48.447 94.9098 48.3227 94.833C48.1985 94.7562 48.0553 94.7157 47.9094 94.7162H47.4648L26.4784 37.4797C32.0985 38.2685 44.6192 39.0931 58.9859 34.1315C64.8276 32.0836 70.7943 30.4144 76.8493 29.1342L87.3531 18.8184C85.5746 18.8934 77.9875 19.4859 65.9861 24.0727C68.6369 18.3212 72.8656 13.4465 78.1771 10.0193C83.4887 6.59209 89.6632 4.75424 95.9779 4.72091C102.293 4.68758 108.486 6.46014 113.833 9.83107C119.18 13.202 123.46 18.0318 126.171 23.755C114.657 19.4717 107.365 18.8898 105.647 18.8184L116.151 29.1342C122.206 30.4148 128.172 32.084 134.014 34.1315C148.391 39.0931 160.898 38.2685 166.518 37.4797L145.532 94.734H145.087C144.941 94.7342 144.799 94.7752 144.675 94.8523C144.551 94.9294 144.451 95.0396 144.387 95.1705C144.322 95.3015 144.295 95.4479 144.309 95.5934C144.323 95.7389 144.376 95.8777 144.465 95.9941C149.612 102.705 158.515 107.145 168.652 107.145C178.79 107.145 187.686 102.705 192.84 95.9941C192.933 95.8776 192.992 95.7367 193.008 95.5881C193.025 95.4394 192.999 95.2891 192.933 95.1549C192.867 95.0206 192.764 94.908 192.637 94.8303C192.51 94.7526 192.363 94.713 192.214 94.7162ZM23.5296 94.7162H2.96298L23.5296 38.5933V94.7162ZM45.7254 94.7162H25.1587V38.5933L45.7254 94.7162ZM24.3442 34.3671C24.1353 33.6335 23.7535 32.9611 23.2309 32.4069C22.7084 31.8527 22.0605 31.4329 21.3421 31.1831C22.0631 30.9341 22.7136 30.5144 23.2387 29.9595C23.7638 29.4047 24.1478 28.731 24.3584 27.9956C24.569 28.731 24.9531 29.4047 25.4781 29.9595C26.0032 30.5144 26.6538 30.9341 27.3748 31.1831C26.6511 31.429 25.9975 31.8471 25.4697 32.4015C24.942 32.956 24.5558 33.6303 24.3442 34.3671ZM167.841 94.7162H147.26L167.827 38.5933L167.841 94.7162ZM168.656 34.3671C168.445 33.6323 168.06 32.9594 167.535 32.4052C167.01 31.8509 166.36 31.4318 165.639 31.1831C166.36 30.9333 167.01 30.5133 167.535 29.9586C168.06 29.4038 168.444 28.7306 168.656 27.9956C168.866 28.7306 169.25 29.404 169.774 29.9588C170.298 30.5137 170.948 30.9336 171.669 31.1831C170.948 31.4315 170.298 31.8506 169.774 32.4049C169.249 32.9592 168.866 33.6323 168.656 34.3671ZM169.47 94.7162V38.5933L190.033 94.7162H169.47Z" fill="url(#paint3_linear_548_3561)"/>
<path d="M115.478 187.89H77.3757V192.944H115.478V187.89Z" fill="url(#paint4_linear_548_3561)"/>
<path d="M120.576 197.995H72.2821V203.05H120.576V197.995Z" fill="url(#paint5_linear_548_3561)"/>
<path d="M77.4291 62.8585V67.9128H77.4575H115.56V62.8585H115.532H77.4291Z" fill="url(#paint6_linear_548_3561)"/>
<path d="M77.4576 52.7533H72.3319V57.8077H77.4576H115.56H120.625V52.7533H115.56H77.4576Z" fill="url(#paint7_linear_548_3561)"/>
<path d="M101.044 168.304V144.667H77.4895V182.861H115.528V173.759H86.5563V168.304H101.044ZM86.5563 153.769H91.9737V159.199H86.5563V153.769Z" fill="url(#paint8_linear_548_3561)"/>
<path d="M115.528 71.9856H91.9737V81.0878H106.458V86.5241H91.9737V124.696H101.044V95.6227H106.458V130.132H86.5563V86.5241H77.486V139.235H106.458V168.304H115.528V71.9856Z" fill="url(#paint9_linear_548_3561)"/>
<path d="M86.5599 71.9856H77.4895V81.0878H86.5599V71.9856Z" fill="url(#paint10_linear_548_3561)"/>
<path d="M41.2151 218.284C39.4793 218.663 39.177 218.955 39.1272 220.701C39.0987 221.454 39.0489 222.032 39.0489 224.552V234.95H38.4905L26.9906 220.951V227.811C26.9906 230.228 27.0227 230.991 27.0653 231.83C27.1507 233.49 27.3926 233.908 29.6406 234.24V234.597H23.7716V234.24C25.6817 233.904 25.9591 233.572 26.0445 231.873C26.0836 231.038 26.1547 230.053 26.1547 227.811V220.772C26.1676 220.323 26.0285 219.882 25.7599 219.523C25.1125 218.652 24.5434 218.452 23.4763 218.284V217.927H27.9155L38.2308 230.199V224.552C38.2308 222.032 38.1739 221.472 38.1383 220.701C38.053 218.955 37.5514 218.559 35.3603 218.284V217.927H41.208L41.2151 218.284Z" fill="#C8A45D"/>
<path d="M58.5627 234.615V234.258C60.206 233.901 60.359 233.661 59.9499 232.473C59.6333 231.534 59.1282 230.01 58.5271 228.329H53.6611C53.1809 229.671 52.7434 230.881 52.409 231.898C51.8292 233.629 52.096 233.843 54.2267 234.243V234.6H48.7311V234.243C50.3317 233.968 50.7017 233.69 51.6158 231.359L56.9264 217.688L57.5027 217.602C59.1069 222.196 60.7716 226.751 62.4825 231.348C63.3433 233.733 63.6172 233.901 65.1965 234.243V234.6L58.5627 234.615ZM56.1475 221.457C55.3436 223.599 54.6926 225.527 53.9492 227.526H58.2176L56.1475 221.457Z" fill="#C8A45D"/>
<path d="M90.7252 218.284C88.7688 218.559 88.591 218.784 88.591 221.043V231.498C88.591 233.761 88.7902 233.926 90.7252 234.24V234.597H83.7748V234.24C85.7489 233.958 85.8876 233.708 85.8876 231.498V225.969H78.1262V231.498C78.1262 233.74 78.3432 233.94 80.2604 234.24V234.597H73.3136V234.24C75.2486 233.983 75.4265 233.758 75.4265 231.498V221.043C75.4265 218.72 75.2237 218.591 73.3136 218.284V217.927H80.264V218.284C78.3397 218.584 78.1298 218.755 78.1298 221.043V225.184H85.8912V221.043C85.8912 218.78 85.6884 218.566 83.7783 218.284V217.927H90.7287L90.7252 218.284Z" fill="#C8A45D"/>
<path d="M100.13 217.909H107.045V218.266C105.085 218.623 104.911 218.791 104.911 221.097V225.791C105.393 225.563 105.834 225.254 106.212 224.877C107.904 223.305 109.51 221.644 111.025 219.901C111.872 218.923 111.736 218.709 110.399 218.391L109.833 218.273V217.916H115.66V218.273C113.739 218.555 113.213 218.848 111.872 220.155C110.531 221.461 108.873 223.121 107.247 224.795C109.111 227.183 111.551 230.192 113.23 232.112C114.671 233.733 115.076 234.004 116.474 234.218V234.575H111.768C109.99 232.409 107.521 229.289 105.906 227.244C105.369 226.53 105.131 226.28 104.907 226.194V231.334C104.907 233.715 105.113 233.797 107.041 234.19V234.547H100.13V234.19C102.022 233.858 102.239 233.719 102.239 231.334V221.133C102.239 218.78 102.036 218.609 100.13 218.277V217.909Z" fill="#C8A45D"/>
<path d="M140.285 218.284C138.332 218.541 138.297 219.155 138.218 220.308C138.176 221.022 138.119 221.929 138.119 223.985V227.161C138.119 229.753 137.877 231.773 136.443 233.308C135.323 234.479 133.758 235 131.819 235C130.201 235 128.618 234.643 127.473 233.694C126.018 232.501 125.513 230.899 125.513 228.125V221.343C125.513 218.845 125.36 218.595 123.45 218.277V217.92H130.265V218.277C128.319 218.634 128.205 218.841 128.205 221.343V228.211C128.205 231.78 129.756 233.69 132.886 233.69C136.283 233.69 137.283 231.748 137.283 227.204V223.97C137.283 221.921 137.24 220.993 137.173 220.205C137.08 218.93 136.817 218.484 134.608 218.277V217.92H140.278L140.285 218.284Z" fill="#C8A45D"/>
<path d="M162.527 234.615V234.258C164.434 233.901 164.533 233.701 164.562 231.045L164.636 220.126C162.602 224.72 158.725 233.501 158.308 234.615H157.953C157.554 233.544 154.438 225.88 152.183 220.494C151.828 229.018 151.81 231.456 151.828 232.373C151.863 233.611 152.354 233.951 154.317 234.24V234.597H148.47V234.24C150.248 233.993 150.604 233.547 150.75 232.416C150.867 231.488 150.96 230.074 151.532 220.147C151.564 219.369 151.379 218.523 149.142 218.284V217.927H153.827L159.287 230.36L164.999 217.927H169.52V218.284C167.357 218.641 167.176 218.859 167.194 221.258L167.279 231.045C167.304 233.626 167.454 233.872 169.52 234.258V234.615H162.527Z" fill="#C8A45D"/>
</g>

</svg>