<svg width="24" height="24" viewBox="0 0 24 24" fill="none" xmlns="http://www.w3.org/2000/svg">
  <path d="M2 9V6.5C2 4.01 4.01 2 6.5 2H9" stroke="currentColor" stroke-width="1.5" stroke-linecap="round" stroke-linejoin="round"/>
  <path d="M15 2H17.5C19.99 2 22 4.01 22 6.5V9" stroke="currentColor" stroke-width="1.5" stroke-linecap="round" stroke-linejoin="round"/>
  <path d="M22 16V17.5C22 19.99 19.99 22 17.5 22H16" stroke="currentColor" stroke-width="1.5" stroke-linecap="round" stroke-linejoin="round"/>
  <path d="M9 22H6.5C4.01 22 2 19.99 2 17.5V15" stroke="currentColor" stroke-width="1.5" stroke-linecap="round" stroke-linejoin="round"/>
  <path d="M10.5 7V9C10.5 10.1 10.1 10.5 9 10.5H7C5.9 10.5 5.5 10.1 5.5 9V7C5.5 5.9 5.9 5.5 7 5.5H9C10.1 5.5 10.5 5.9 10.5 7Z" stroke="currentColor" stroke-width="1.5" stroke-linecap="round" stroke-linejoin="round"/>
  <path d="M18.5 7V9C18.5 10.1 18.1 10.5 17 10.5H15C13.9 10.5 13.5 10.1 13.5 9V7C13.5 5.9 13.9 5.5 15 5.5H17C18.1 5.5 18.5 5.9 18.5 7Z" stroke="currentColor" stroke-width="1.5" stroke-linecap="round" stroke-linejoin="round"/>
  <path d="M10.5 15V17C10.5 18.1 10.1 18.5 9 18.5H7C5.9 18.5 5.5 18.1 5.5 17V15C5.5 13.9 5.9 13.5 7 13.5H9C10.1 13.5 10.5 13.9 10.5 15Z" stroke="currentColor" stroke-width="1.5" stroke-linecap="round" stroke-linejoin="round"/>
  <path d="M18.5 15V17C18.5 18.1 18.1 18.5 17 18.5H15C13.9 18.5 13.5 18.1 13.5 17V15C13.5 13.9 13.9 13.5 15 13.5H17C18.1 13.5 18.5 13.9 18.5 15Z" stroke="currentColor" stroke-width="1.5" stroke-linecap="round" stroke-linejoin="round"/>
</svg>
