<svg width="42" height="42" viewBox="0 0 42 42" fill="none" xmlns="http://www.w3.org/2000/svg">
<path d="M21 39.9175C19.7925 39.9175 18.655 39.305 17.85 38.2375L15.225 34.7375C15.1725 34.6675 14.9625 34.58 14.875 34.5625H14C6.7025 34.5625 2.1875 32.585 2.1875 22.75V14C2.1875 6.265 6.265 2.1875 14 2.1875H28C35.735 2.1875 39.8125 6.265 39.8125 14V22.75C39.8125 30.485 35.735 34.5625 28 34.5625H27.125C26.985 34.5625 26.8625 34.6325 26.775 34.7375L24.15 38.2375C23.345 39.305 22.2075 39.9175 21 39.9175ZM14 4.8125C7.735 4.8125 4.8125 7.735 4.8125 14V22.75C4.8125 30.66 7.525 31.9375 14 31.9375H14.875C15.7675 31.9375 16.7825 32.445 17.325 33.1625L19.95 36.6625C20.5625 37.4675 21.4375 37.4675 22.05 36.6625L24.675 33.1625C25.2525 32.3925 26.1625 31.9375 27.125 31.9375H28C34.265 31.9375 37.1875 29.015 37.1875 22.75V14C37.1875 7.735 34.265 4.8125 28 4.8125H14Z" fill="#C8A45D"/>
<path d="M21 21C20.02 21 19.25 20.2125 19.25 19.25C19.25 18.2875 20.0375 17.5 21 17.5C21.9625 17.5 22.75 18.2875 22.75 19.25C22.75 20.2125 21.98 21 21 21Z" fill="#C8A45D"/>
<path d="M28 21C27.02 21 26.25 20.2125 26.25 19.25C26.25 18.2875 27.0375 17.5 28 17.5C28.9625 17.5 29.75 18.2875 29.75 19.25C29.75 20.2125 28.98 21 28 21Z" fill="#C8A45D"/>
<path d="M14 21C13.02 21 12.25 20.2125 12.25 19.25C12.25 18.2875 13.0375 17.5 14 17.5C14.9625 17.5 15.75 18.2875 15.75 19.25C15.75 20.2125 14.98 21 14 21Z" fill="#C8A45D"/>
</svg>
