<svg width="20" height="20" viewBox="0 0 20 20" fill="none" xmlns="http://www.w3.org/2000/svg">
<path d="M12.5002 18.9583H7.50016C3.82516 18.9583 2.7085 17.8417 2.7085 14.1667V5.83332C2.7085 2.15832 3.82516 1.04166 7.50016 1.04166H12.5002C16.1752 1.04166 17.2918 2.15832 17.2918 5.83332V14.1667C17.2918 17.8417 16.1752 18.9583 12.5002 18.9583ZM7.50016 2.29166C4.51683 2.29166 3.9585 2.85832 3.9585 5.83332V14.1667C3.9585 17.1417 4.51683 17.7083 7.50016 17.7083H12.5002C15.4835 17.7083 16.0418 17.1417 16.0418 14.1667V5.83332C16.0418 2.85832 15.4835 2.29166 12.5002 2.29166H7.50016Z" fill="#181E3C"/>
<path d="M11.6668 5.20834H8.3335C7.99183 5.20834 7.7085 4.92501 7.7085 4.58334C7.7085 4.24168 7.99183 3.95834 8.3335 3.95834H11.6668C12.0085 3.95834 12.2918 4.24168 12.2918 4.58334C12.2918 4.92501 12.0085 5.20834 11.6668 5.20834Z" fill="#181E3C"/>
<path d="M10.0002 16.55C8.94183 16.55 8.0835 15.6917 8.0835 14.6333C8.0835 13.575 8.94183 12.7167 10.0002 12.7167C11.0585 12.7167 11.9168 13.575 11.9168 14.6333C11.9168 15.6917 11.0585 16.55 10.0002 16.55ZM10.0002 13.9583C9.6335 13.9583 9.3335 14.2583 9.3335 14.625C9.3335 14.9917 9.6335 15.2917 10.0002 15.2917C10.3668 15.2917 10.6668 14.9917 10.6668 14.625C10.6668 14.2583 10.3668 13.9583 10.0002 13.9583Z" fill="#181E3C"/>
</svg>
