<svg width="24" height="24" viewBox="0 0 24 24" fill="none" xmlns="http://www.w3.org/2000/svg">
<path d="M21.3891 13.6022L19.1049 8.93181H19.139C19.8208 8.93181 20.4686 8.76136 21.0822 8.38636L21.3549 8.2159C21.6617 8.04545 21.8663 7.77273 21.9344 7.4318C22.0026 7.09087 21.9685 6.74998 21.7981 6.47726C21.4231 5.86362 20.639 5.65907 20.0253 6.03409L19.5481 6.30681C19.3094 6.44318 18.9685 6.44318 18.7299 6.30681L18.0481 5.89772C17.4685 5.55681 16.7867 5.35227 16.1049 5.35227H13.4457L13.3775 5.28409V3.47728C13.3775 2.76138 12.798 2.18182 12.0821 2.18182C11.3661 2.18182 10.7866 2.76136 10.7866 3.47728V5.28409L10.7184 5.35227H8.05923C7.37741 5.35227 6.6956 5.52272 6.11606 5.89772L5.43424 6.30681C5.1956 6.44318 4.85471 6.44318 4.61606 6.30681L4.13879 6.03409C3.52515 5.65907 2.74107 5.86363 2.36606 6.47726C2.19561 6.78406 2.12741 7.12499 2.2297 7.4318C2.29788 7.77271 2.53651 8.04544 2.80923 8.2159L3.08196 8.38636C3.6956 8.76137 4.34331 8.93181 5.02513 8.93181H5.05922L2.77508 13.6022C2.46827 13.6022 2.19554 13.8409 2.19554 14.1817V14.9317C2.19554 15.7499 2.87736 16.4317 3.69554 16.4317H7.54776C8.36594 16.4317 9.04776 15.7499 9.04776 14.9317V14.1817C9.04776 13.8749 8.80911 13.6022 8.46823 13.6022H8.43413L6.08192 8.76119C6.38872 8.65892 6.66145 8.55665 6.93418 8.38618L7.51371 8.04527C7.65008 7.97709 7.78644 7.943 7.9228 7.943H10.7181L10.7863 8.01118V17.1475H9.59314C8.91132 17.1475 8.36587 17.693 8.36587 18.3748V19.1248H7.41132C6.7295 19.1248 6.18405 19.6703 6.18405 20.3521V21.1703C6.18405 21.4771 6.45677 21.7498 6.76358 21.7498H17.3999C17.7068 21.7498 17.9795 21.4771 17.9795 21.1703V20.318C17.9795 19.6362 17.434 19.0907 16.7522 19.0907H15.7977V18.3407C15.7977 17.6589 15.2522 17.1135 14.5704 17.1135H13.3772V7.9771L13.4454 7.90892H16.2407C16.3771 7.90892 16.5134 7.94301 16.6498 8.01119L17.2293 8.3521C17.5021 8.52256 17.7748 8.62483 18.0816 8.72711L15.7294 13.5681H15.6953C15.3885 13.5681 15.1158 13.8068 15.1158 14.1477V14.8977C15.1158 15.7158 15.7976 16.3977 16.6158 16.3977H20.468C21.2862 16.3977 21.968 15.7158 21.968 14.8977V14.1477C21.968 13.8409 21.7293 13.6022 21.3884 13.6022H21.3891ZM20.605 13.6022H18.8663V10.0227L20.605 13.6022ZM10.8891 6.64767C10.8891 5.99993 11.4346 5.45447 12.0823 5.45447C12.73 5.45447 13.2755 5.99993 13.2755 6.64767C13.2755 7.29541 12.73 7.84086 12.0823 7.84086C11.4346 7.84086 10.8891 7.29541 10.8891 6.64767ZM11.4686 3.47727C11.4686 3.13636 11.7414 2.86363 12.0823 2.86363C12.4232 2.86363 12.6959 3.13636 12.6959 3.47727V4.87498C12.4914 4.8068 12.3209 4.77271 12.0823 4.77271C11.8437 4.77271 11.6732 4.8068 11.4686 4.87498V3.47727ZM5.29824 10.0227V13.6022H3.55959L5.29824 10.0227ZM8.36631 14.8978C8.36631 15.3409 7.9913 15.716 7.54813 15.716H3.69591C3.25274 15.75 2.87773 15.375 2.87773 14.8978V14.25H8.36631V14.8978ZM5.97984 13.6023V10.0228L7.71849 13.6023H5.97984ZM7.95711 7.22727C7.68438 7.22727 7.41166 7.29545 7.20711 7.43181L6.62758 7.77272C5.63895 8.35226 4.44576 8.35226 3.45718 7.77272L3.18445 7.60227C3.04809 7.53409 2.9458 7.39772 2.91172 7.22726C2.87764 7.05679 2.91172 6.92045 2.97991 6.78409C3.15036 6.51136 3.52536 6.40907 3.79809 6.57954L4.27536 6.85227C4.75263 7.12499 5.33219 7.12499 5.80944 6.85227L6.49126 6.44318C6.96853 6.17045 7.51398 6.00001 8.05944 6.00001H10.3093C10.2411 6.20455 10.2071 6.37502 10.2071 6.61364C10.2071 6.81819 10.2411 7.02273 10.3093 7.22728L7.95711 7.22727ZM17.2979 20.3182V21.0682H6.8662V20.3182C6.8662 20.0114 7.10485 19.7727 7.41166 19.7727H16.7525C17.0593 19.7727 17.2979 20.0114 17.2979 20.3182ZM15.1161 18.3409V19.0909H9.04802V18.3409C9.04802 18.0341 9.28667 17.7955 9.59348 17.7955H14.5366C14.8775 17.7955 15.1161 18.0341 15.1161 18.3409ZM12.6956 17.1136H11.5024V8.38636C11.7069 8.45454 11.8774 8.48863 12.116 8.48863C12.3547 8.48863 12.5251 8.45454 12.7297 8.38636V17.1136H12.6956ZM16.9569 7.43181C16.7182 7.29545 16.4796 7.22727 16.2069 7.22727H13.8547C13.9229 7.02272 13.9569 6.85226 13.9569 6.61363C13.9569 6.40909 13.9229 6.20454 13.8547 5.99999H16.1046C16.65 5.99999 17.1955 6.13636 17.6727 6.44317L18.3546 6.85226C18.8318 7.12498 19.4114 7.12498 19.8886 6.85226L20.3659 6.57953C20.6386 6.40907 21.0137 6.51135 21.1841 6.78407C21.2523 6.92044 21.2864 7.09088 21.2523 7.22725C21.2182 7.3977 21.1159 7.49997 20.9796 7.60226L20.7068 7.77271C19.7182 8.35225 18.525 8.35225 17.5364 7.77271L16.9569 7.43181ZM18.1842 10.0227V13.6022H16.4455L18.1842 10.0227ZM21.2865 14.8978C21.2865 15.3409 20.9115 15.716 20.4683 15.716H16.6161C16.1729 15.716 15.7979 15.3409 15.7979 14.8978V14.25H21.2865V14.8978Z" fill="#C8A45D"/>
</svg>
