<svg width="40" height="40" viewBox="0 0 40 40" fill="none" xmlns="http://www.w3.org/2000/svg">
<path d="M28.1046 8.12593C26.7021 6.81055 24.1754 6.07593 20.9962 6.07593H13.6087C13.1596 6.07476 12.7212 6.22731 12.3721 6.50835C12.023 6.78939 11.7871 7.18095 11.7038 7.62218L8.03211 27.7693C7.98757 27.9998 8.0332 28.2384 8.15872 28.4317C8.28424 28.625 8.47832 28.7582 8.70379 28.7993H8.73629L12.8296 29.2968L14.1037 21.0134H16.0046C20.2362 21.0134 23.5829 20.0643 25.4571 18.1968C25.7578 17.8986 26.0265 17.5711 26.2587 17.2193C26.2529 17.2084 26.2529 17.1968 26.2587 17.1859C27.3744 15.4616 27.7504 13.4142 27.3112 11.451C27.1638 10.3884 26.7279 9.38681 26.0546 8.59218C26.7729 9.30347 27.3179 10.1635 27.6429 11.1143C28.2646 13.713 27.4512 15.8517 25.5004 17.3968C25.4994 17.3976 25.4983 17.3982 25.4971 17.3984C25.4959 17.3987 25.4947 17.3986 25.4937 17.3984C25.4912 17.3984 25.4896 17.3984 25.4887 17.3968C23.5312 19.2634 20.1846 20.2118 15.9321 20.2118H14.0521L12.7779 28.4943H8.73629C8.44069 28.4939 8.15674 28.3782 7.94373 28.173C7.73071 27.9678 7.60329 27.6883 7.59879 27.3927L11.2862 7.22218C11.3944 6.65673 11.707 6.14911 12.1652 5.7932C12.6234 5.43729 13.1934 5.26165 13.7737 5.30343H21.1612C24.6029 5.30343 27.1912 6.10343 28.7462 7.57968C30.1246 8.89509 30.8037 10.7451 30.7562 12.6451C30.5687 17.8518 25.8812 20.9518 16.0354 20.9518H14.1346L12.8604 29.2351C12.8383 29.3979 12.8625 29.5638 12.9306 29.7151C12.9988 29.8663 13.1082 29.9971 13.2462 30.0943C13.3843 30.1915 13.5461 30.251 13.7146 30.2668C13.8831 30.2826 14.0528 30.2542 14.2079 30.1843L18.3337 28.6743L19.6246 20.3327C19.6246 20.3327 19.6096 20.3134 19.6021 20.3051L19.5971 20.2968H19.6246L19.6079 20.2118C25.6162 20.2118 30.3904 17.1584 30.5929 12.0543C30.6462 10.1243 29.9113 7.98593 28.1054 8.12593H28.1046Z" fill="#28356A"/>
<path d="M26.2587 17.186C26.252 17.197 26.252 17.2086 26.2587 17.2193C26.0265 17.5711 25.7578 17.8986 25.4571 18.1969C23.5829 20.0644 20.2362 21.0135 16.0046 21.0135H14.1037L12.8287 29.2969L8.73629 28.7994H8.70379C8.47833 28.7583 8.28425 28.6251 8.15873 28.4318C8.03321 28.2385 7.98758 27.9999 8.03212 27.7694L11.7046 7.62219C11.7879 7.18101 12.0238 6.78949 12.3728 6.50847C12.7218 6.22745 13.16 6.07489 13.6087 6.07594H20.9962C24.1754 6.07594 26.7021 6.81057 28.1054 8.12594C26.3004 7.98594 25.5654 10.1243 25.6187 12.0544C25.8321 17.186 30.5929 20.2202 30.5929 20.2202L29.3021 28.5318L25.1762 30.0427C25.0218 30.1114 24.8532 30.1384 24.686 30.1212C24.5188 30.1039 24.3587 30.0429 24.2228 29.9443C24.0869 29.8458 23.9797 29.7139 23.9137 29.5621C23.8477 29.4102 23.8256 29.244 23.8496 29.0818L25.1237 20.7777H25.0962L25.1012 20.786C25.1088 20.7968 25.1237 20.8135 25.1237 20.8135C25.5004 19.2377 25.9979 17.4877 25.9979 17.4877C26.0952 17.3701 26.1816 17.2437 26.2579 17.1852L26.2587 17.186Z" fill="#298FC2"/>
<path d="M11.2862 7.22197L7.59879 27.3928C7.60329 27.6884 7.73071 27.9679 7.94373 28.1731C8.15675 28.3783 8.4407 28.494 8.73629 28.4944H12.7787L14.0537 20.2119H15.9329C20.1854 20.2119 23.532 19.2628 25.4887 17.3969C25.4893 17.3982 25.4907 17.3984 25.4921 17.3984C25.4935 17.3984 25.4949 17.398 25.4962 17.3969C27.4471 15.8519 28.2604 13.7144 27.6387 11.1128C27.3137 10.162 26.7687 9.30197 26.0504 8.59197C26.0504 8.59197 26.0179 8.57072 26.0046 8.55947C24.9546 7.56197 22.9104 6.87947 19.9587 6.87947H13.0096C12.6641 6.87855 12.3284 7.00371 12.0618 7.23557C11.7953 7.46743 11.616 7.7922 11.5587 8.15447L11.2862 7.22197Z" fill="#22284F"/>
</svg> 