<svg width="58" height="35" viewBox="0 0 58 35" fill="none" xmlns="http://www.w3.org/2000/svg">
<path fill-rule="evenodd" clip-rule="evenodd" d="M26.4388 17.2322L26.6913 15.5851L26.1288 15.5717H23.4429L25.3095 3.41685C25.3153 3.38005 25.3341 3.34589 25.3616 3.32158C25.3892 3.29727 25.4243 3.28394 25.4611 3.28394H29.9901C31.4937 3.28394 32.5313 3.6052 33.073 4.23937C33.327 4.53688 33.4887 4.84785 33.567 5.18995C33.6491 5.54897 33.6505 5.97787 33.5704 6.50108L33.5646 6.53913V6.87445L33.8186 7.02222C34.0324 7.13876 34.2024 7.27208 34.3328 7.42466C34.55 7.67914 34.6905 8.00253 34.7499 8.38572C34.8113 8.77987 34.791 9.24908 34.6905 9.78015C34.5746 10.391 34.3873 10.9231 34.1343 11.3584C33.9016 11.7595 33.6052 12.0923 33.2531 12.3501C32.9171 12.5951 32.5178 12.7811 32.0664 12.9001C31.6288 13.017 31.1301 13.076 30.583 13.076H30.2305C29.9786 13.076 29.7338 13.1693 29.5416 13.3363C29.3489 13.5069 29.2215 13.74 29.1824 13.9948L29.1558 14.1431L28.7096 17.0464L28.6894 17.1529C28.684 17.1867 28.6748 17.2035 28.6613 17.2148C28.6493 17.2253 28.632 17.2322 28.615 17.2322H26.4388Z" fill="#28356A"/>
<path fill-rule="evenodd" clip-rule="evenodd" d="M34.0591 6.57764C34.0457 6.66639 34.0302 6.75704 34.0128 6.85033C33.4156 9.99954 31.3722 11.0875 28.7625 11.0875H27.4337C27.1145 11.0875 26.8455 11.3254 26.7959 11.6486L25.9229 17.3356C25.8906 17.548 26.0499 17.7392 26.2584 17.7392H28.6152C28.8942 17.7392 29.1313 17.531 29.1753 17.2484L29.1984 17.1255L29.6421 14.2336L29.6707 14.075C29.7141 13.7913 29.9517 13.583 30.2307 13.583H30.5832C32.8665 13.583 34.654 12.6311 35.1765 9.87604C35.3946 8.72513 35.2817 7.76417 34.7042 7.08831C34.5295 6.88463 34.3127 6.71541 34.0591 6.57764Z" fill="#298FC2"/>
<path fill-rule="evenodd" clip-rule="evenodd" d="M33.4344 6.32171C33.3431 6.29435 33.249 6.26963 33.1524 6.24726C33.0553 6.22546 32.9559 6.20616 32.8535 6.18921C32.4953 6.12976 32.1027 6.10156 31.6822 6.10156H28.1324C28.0449 6.10156 27.9619 6.12185 27.8876 6.15851C27.7238 6.23935 27.6022 6.39852 27.5728 6.59339L26.8176 11.5054L26.7959 11.6486C26.8456 11.3253 27.1146 11.0873 27.4337 11.0873H28.7625C31.3722 11.0873 33.4156 9.99885 34.0129 6.85015C34.0307 6.75696 34.0457 6.6663 34.0591 6.57754C33.908 6.49518 33.7444 6.42477 33.5682 6.36477C33.5246 6.3499 33.4797 6.3356 33.4344 6.32171Z" fill="#22284F"/>
<path fill-rule="evenodd" clip-rule="evenodd" d="M27.5727 6.59369C27.6022 6.39883 27.7237 6.23966 27.8875 6.15938C27.9623 6.12257 28.0448 6.1023 28.1323 6.1023H31.6821C32.1026 6.1023 32.4952 6.13063 32.8535 6.19008C32.9558 6.20688 33.0552 6.22633 33.1523 6.24813C33.2489 6.27035 33.343 6.29521 33.4343 6.32243C33.4796 6.33633 33.5245 6.35077 33.5685 6.36507C33.7447 6.42508 33.9085 6.49605 34.0596 6.57786C34.2373 5.41408 34.0581 4.62172 33.4454 3.9042C32.7699 3.11419 31.5508 2.77612 29.9907 2.77612H25.4616C25.143 2.77612 24.8712 3.01405 24.8219 3.33794L22.9355 15.6177C22.8983 15.8606 23.0808 16.0799 23.3194 16.0799H26.1154L27.5727 6.59369Z" fill="#28356A"/>
<path fill-rule="evenodd" clip-rule="evenodd" d="M13.0946 20.5752H9.79248C9.56648 20.5752 9.3743 20.7438 9.339 20.9729L8.00345 29.6686C7.97695 29.8403 8.10638 29.9949 8.27584 29.9949H9.85225C10.0782 29.9949 10.2704 29.8264 10.3057 29.5968L10.6659 27.2514C10.7006 27.0218 10.8932 26.8532 11.1188 26.8532H12.1641C14.3393 26.8532 15.5946 25.7722 15.9226 23.6302C16.0703 22.693 15.9288 21.9567 15.5014 21.441C15.0321 20.8747 14.1997 20.5752 13.0946 20.5752ZM13.4755 23.7512C13.2949 24.968 12.3896 24.968 11.5143 24.968H11.0159L11.3655 22.6955C11.3863 22.5581 11.5021 22.457 11.6374 22.457H11.8658C12.4621 22.457 13.0246 22.457 13.3152 22.8061C13.4886 23.0142 13.5416 23.3237 13.4755 23.7512Z" fill="#28356A"/>
<path fill-rule="evenodd" clip-rule="evenodd" d="M23.0495 23.6464H21.4682C21.3335 23.6464 21.217 23.7476 21.1963 23.8849L21.1263 24.3391L21.0158 24.1745C20.6735 23.6643 19.91 23.4937 19.1482 23.4937C17.4007 23.4937 15.9083 24.8529 15.6176 26.7594C15.4665 27.7104 15.6813 28.6199 16.2067 29.254C16.6886 29.8371 17.3781 30.0801 18.1984 30.0801C19.6064 30.0801 20.387 29.1504 20.387 29.1504L20.3166 29.6017C20.2901 29.7742 20.4195 29.9289 20.588 29.9289H22.0123C22.2388 29.9289 22.43 29.7603 22.4658 29.5307L23.3204 23.9727C23.3474 23.8016 23.2184 23.6464 23.0495 23.6464ZM20.8452 26.8071C20.6927 27.7347 19.9758 28.3575 19.0612 28.3575C18.6021 28.3575 18.2352 28.2063 17.9994 27.9197C17.7657 27.6351 17.677 27.23 17.7512 26.7787C17.8938 25.859 18.6228 25.2158 19.5234 25.2158C19.9724 25.2158 20.3374 25.3692 20.5779 25.658C20.8187 25.9501 20.9144 26.3578 20.8452 26.8071Z" fill="#28356A"/>
<path fill-rule="evenodd" clip-rule="evenodd" d="M31.3494 23.7852H29.7603C29.6087 23.7852 29.4663 23.8626 29.3804 23.992L27.1887 27.3072L26.2597 24.1213C26.2013 23.922 26.0222 23.7852 25.8194 23.7852H24.258C24.0681 23.7852 23.9364 23.9756 23.9967 24.1591L25.747 29.4339L24.1015 31.8195C23.9721 32.0074 24.1024 32.2658 24.326 32.2658H25.9131C26.0638 32.2658 26.2047 32.1903 26.2902 32.0635L31.5753 24.229C31.7019 24.0416 31.5719 23.7852 31.3494 23.7852Z" fill="#28356A"/>
<path fill-rule="evenodd" clip-rule="evenodd" d="M36.6467 20.5752H33.3442C33.1187 20.5752 32.9265 20.7438 32.8912 20.9729L31.5557 29.6686C31.5292 29.8403 31.6586 29.9949 31.8271 29.9949H33.5219C33.6792 29.9949 33.8139 29.877 33.8385 29.7163L34.2176 27.2514C34.2523 27.0218 34.4451 26.8532 34.6705 26.8532H35.7154C37.891 26.8532 39.1459 25.7722 39.4743 23.6302C39.6225 22.693 39.4801 21.9567 39.0527 21.441C38.5838 20.8747 37.7519 20.5752 36.6467 20.5752ZM37.0277 23.7512C36.8476 24.968 35.9422 24.968 35.0664 24.968H34.5687L34.9187 22.6955C34.9394 22.5581 35.0543 22.457 35.19 22.457H35.4184C36.0142 22.457 36.5772 22.457 36.8678 22.8061C37.0412 23.0142 37.0938 23.3237 37.0277 23.7512Z" fill="#298FC2"/>
<path fill-rule="evenodd" clip-rule="evenodd" d="M46.6001 23.6464H45.0197C44.8841 23.6464 44.7687 23.7476 44.7484 23.8849L44.6784 24.3391L44.5673 24.1745C44.225 23.6643 43.4621 23.4937 42.7001 23.4937C40.9528 23.4937 39.4609 24.8529 39.1703 26.7594C39.0196 27.7104 39.2334 28.6199 39.7587 29.254C40.2417 29.8371 40.9301 30.0801 41.7505 30.0801C43.1584 30.0801 43.9391 29.1504 43.9391 29.1504L43.8687 29.6017C43.8422 29.7742 43.9715 29.9289 44.141 29.9289H45.5649C45.7904 29.9289 45.9825 29.7603 46.0178 29.5307L46.8729 23.9727C46.899 23.8016 46.7695 23.6464 46.6001 23.6464ZM44.396 26.8071C44.2444 27.7347 43.5264 28.3575 42.6118 28.3575C42.1536 28.3575 41.7858 28.2063 41.55 27.9197C41.3165 27.6351 41.2285 27.23 41.3018 26.7787C41.4453 25.859 42.1734 25.2158 43.074 25.2158C43.523 25.2158 43.888 25.3692 44.1285 25.658C44.3703 25.9501 44.4659 26.3578 44.396 26.8071Z" fill="#298FC2"/>
<path fill-rule="evenodd" clip-rule="evenodd" d="M48.3324 20.8142L46.9771 29.669C46.9506 29.8407 47.0799 29.9953 47.2484 29.9953H48.611C48.8375 29.9953 49.0296 29.8268 49.0643 29.5972L50.4008 20.902C50.4275 20.7303 50.298 20.5752 50.1295 20.5752H48.6038C48.4691 20.5756 48.3532 20.6769 48.3324 20.8142Z" fill="#298FC2"/>
</svg>
