<svg width="20" height="20" viewBox="0 0 20 20" fill="none" xmlns="http://www.w3.org/2000/svg">
<path d="M9.99995 18.9583C9.79995 18.9583 9.59996 18.9334 9.40829 18.875C5.08329 17.6834 1.94995 13.6417 1.94995 9.25833V5.59998C1.94995 4.66665 2.62496 3.65836 3.49162 3.30002L8.1333 1.4C9.34163 0.908333 10.6666 0.908333 11.8666 1.4L16.5083 3.30002C17.375 3.65836 18.05 4.66665 18.05 5.59998V9.25833C18.05 13.6333 14.9083 17.675 10.5916 18.875C10.3999 18.9334 10.2 18.9583 9.99995 18.9583ZM9.99995 2.29167C9.52495 2.29167 9.05828 2.38335 8.60828 2.56669L3.96663 4.46666C3.56663 4.63333 3.19995 5.17499 3.19995 5.60832V9.26667C3.19995 13.0917 5.94996 16.625 9.74162 17.675C9.90829 17.725 10.0916 17.725 10.2583 17.675C14.05 16.625 16.8 13.0917 16.8 9.26667V5.60832C16.8 5.17499 16.4333 4.63333 16.0333 4.46666L11.3916 2.56669C10.9416 2.38335 10.475 2.29167 9.99995 2.29167Z" fill="#C8A45D"/>
</svg>
