<svg width="24" height="24" viewBox="0 0 24 24" fill="none" xmlns="http://www.w3.org/2000/svg">
<path d="M5.40995 2.24998C4.28995 2.24998 3.57995 2.62998 3.12995 3.07998C2.24995 3.95998 1.62995 5.82998 3.60995 9.79998L4.47995 11.53C4.58995 11.76 4.58995 12.24 4.47995 12.47L3.60995 14.2C1.61995 18.17 2.24995 20.05 3.12995 20.92C3.99995 21.8 5.87995 22.43 9.83995 20.44L18.3999 16.16C20.5299 15.1 21.6999 13.62 21.6999 12C21.6999 10.38 20.5299 8.89998 18.4099 7.83998L9.84995 3.55998C7.90995 2.58998 6.46995 2.24998 5.40995 2.24998ZM5.40995 20.25C4.86995 20.25 4.44995 20.12 4.18995 19.86C3.45995 19.14 3.74995 17.27 4.94995 14.88L5.81995 13.14C6.13995 12.49 6.13995 11.51 5.81995 10.86L4.94995 9.12998C3.74995 6.72998 3.45995 4.86998 4.18995 4.14998C4.90995 3.41998 6.77995 3.70998 9.17995 4.90998L17.7399 9.18998C19.3099 9.96998 20.1999 11 20.1999 12.01C20.1999 13.02 19.2999 14.05 17.7299 14.83L9.16995 19.1C7.64995 19.86 6.33995 20.25 5.40995 20.25Z" fill="white"/>
<path d="M10.8399 11.25H5.43994C5.02994 11.25 4.68994 11.59 4.68994 12C4.68994 12.41 5.02994 12.75 5.43994 12.75H10.8399C11.2499 12.75 11.5899 12.41 11.5899 12C11.5899 11.59 11.2499 11.25 10.8399 11.25Z" fill="white"/>
</svg>
