<svg width="20" height="20" viewBox="0 0 20 20" fill="none" xmlns="http://www.w3.org/2000/svg">
<path d="M10.0002 18.9667C9.09183 18.9667 8.19183 18.7 7.4835 18.175L3.90016 15.5C2.95016 14.7917 2.2085 13.3083 2.2085 12.1333V5.93333C2.2085 4.65 3.15016 3.28333 4.3585 2.83333L8.51683 1.275C9.34183 0.966667 10.6418 0.966667 11.4668 1.275L15.6252 2.83333C16.8335 3.28333 17.7752 4.65 17.7752 5.93333V12.125C17.7752 13.3083 17.0335 14.7833 16.0835 15.4917L12.5002 18.1667C11.8085 18.7 10.9085 18.9667 10.0002 18.9667ZM8.9585 2.45L4.80016 4.00833C4.09183 4.275 3.46683 5.175 3.46683 5.94167V12.1333C3.46683 12.925 4.02516 14.0333 4.65016 14.5L8.2335 17.175C9.19183 17.8917 10.8085 17.8917 11.7752 17.175L15.3585 14.5C15.9918 14.025 16.5418 12.925 16.5418 12.1333V5.93333C16.5418 5.175 15.9168 4.275 15.2085 4L11.0502 2.44167C10.4835 2.24167 9.51683 2.24167 8.9585 2.45Z" fill="#181E3C"/>
<path d="M8.88353 11.8583C8.72519 11.8583 8.56686 11.8 8.44186 11.675L7.1002 10.3333C6.85853 10.0917 6.85853 9.69167 7.1002 9.45C7.34186 9.20833 7.74186 9.20833 7.98353 9.45L8.88353 10.35L12.0252 7.20833C12.2669 6.96667 12.6669 6.96667 12.9085 7.20833C13.1502 7.45 13.1502 7.85 12.9085 8.09167L9.32519 11.675C9.20019 11.8 9.04186 11.8583 8.88353 11.8583Z" fill="#181E3C"/>
</svg>
