<svg width="175" height="213" viewBox="0 0 175 213" fill="none" xmlns="http://www.w3.org/2000/svg">
<g clip-path="url(#clip0_548_3582)">
<path d="M104.783 38.6555H70.2334V43.2367H104.783V38.6555Z" fill="url(#paint0_linear_548_3582)"/>
<path d="M88.1144 13.1936C87.9531 13.0332 87.7352 12.9432 87.508 12.9432C87.2809 12.9432 87.063 13.0332 86.9017 13.1936L59.0902 40.4997C59.0244 40.5655 58.9723 40.6436 58.9367 40.7297C58.9011 40.8157 58.8828 40.908 58.8828 41.0011C58.8828 41.0943 58.9011 41.1865 58.9367 41.2726C58.9723 41.3586 59.0244 41.4368 59.0902 41.5026L60.7995 43.2529C60.8649 43.3192 60.9428 43.3719 61.0286 43.4078C61.1144 43.4437 61.2065 43.4622 61.2995 43.4622C61.3925 43.4622 61.4845 43.4437 61.5703 43.4078C61.6561 43.3719 61.734 43.3192 61.7994 43.2529L87.5177 18.0175L113.239 43.2691C113.305 43.335 113.383 43.3873 113.469 43.423C113.554 43.4587 113.646 43.4771 113.739 43.4771C113.832 43.4771 113.924 43.4587 114.01 43.423C114.096 43.3873 114.173 43.335 114.239 43.2691L115.948 41.5188C116.014 41.453 116.066 41.3748 116.102 41.2887C116.137 41.2027 116.156 41.1105 116.156 41.0173C116.156 40.9241 116.137 40.8319 116.102 40.7459C116.066 40.6598 116.014 40.5816 115.948 40.5158L88.1144 13.1936Z" fill="url(#paint1_linear_548_3582)"/>
<path d="M93.5328 29.8716C92.0906 29.3736 90.7892 28.5343 89.7388 27.4249C88.6884 26.3155 87.9199 24.9685 87.4983 23.4981C87.0775 24.9684 86.3097 26.3154 85.2598 27.4249C84.2099 28.5343 82.9089 29.3736 81.467 29.8716C82.91 30.3667 84.2127 31.2037 85.2643 32.3116C86.316 33.4195 87.0857 34.7655 87.508 36.2355C87.9295 34.7676 88.6969 33.4231 89.7456 32.3155C90.7942 31.2078 92.0932 30.3696 93.5328 29.8716Z" fill="url(#paint2_linear_548_3582)"/>
<path d="M174.287 85.849H173.884L154.59 33.2169C155.588 32.7982 156.437 32.0879 157.027 31.1785C157.616 30.2691 157.919 29.2027 157.896 28.1181C157.896 25.0996 155.639 23.1454 152.875 23.1454C150.111 23.1454 147.853 25.0866 147.853 28.1181C147.853 29.1437 148.117 29.6063 148.569 30.4249C140.569 31.2453 132.501 29.7876 125.289 26.219C123.392 25.2807 121.573 24.4428 119.835 23.6857C117.563 16.7624 113.163 10.7392 107.267 6.48076C101.37 2.22236 94.2792 -0.0521521 87.0133 -0.0162126C79.7474 0.0197268 72.6797 2.36427 66.825 6.6808C60.9703 10.9973 56.6297 17.0638 54.4264 24.0093C52.9213 24.6822 51.3495 25.4198 49.7111 26.2222C42.5024 29.7823 34.4401 31.2342 26.4472 30.4119C26.8987 29.5934 27.16 29.1178 27.16 28.1052C27.16 25.0866 24.9023 23.1325 22.1414 23.1325C19.3806 23.1325 17.0939 25.0996 17.0939 28.1181C17.0709 29.2027 17.374 30.2691 17.9636 31.1785C18.5533 32.0879 19.4021 32.7982 20.3998 33.2169L1.11589 85.849H0.712729C0.580405 85.8485 0.450591 85.8852 0.337949 85.9549C0.225307 86.0245 0.134327 86.1244 0.0752836 86.2432C0.0162406 86.362 -0.00851202 86.4949 0.00382179 86.6271C0.0161556 86.7593 0.0650843 86.8853 0.145081 86.9911C4.81205 93.0735 12.8881 97.0982 22.0769 97.0982C31.2657 97.0982 39.3386 93.0735 44.0088 86.9911C44.0888 86.8853 44.1377 86.7593 44.15 86.6271C44.1624 86.4949 44.1376 86.362 44.0786 86.2432C44.0195 86.1244 43.9285 86.0245 43.8159 85.9549C43.7033 85.8852 43.5734 85.8485 43.4411 85.849H43.038L24.0089 33.9708C29.1048 34.6858 40.4577 35.4331 53.4846 30.9361C58.7815 29.0799 64.1917 27.5669 69.6819 26.4066L79.2062 17.0566C77.5935 17.1245 70.714 17.6616 59.8319 21.8189C62.2355 16.6059 66.0698 12.1875 70.886 9.08116C75.7021 5.97481 81.3008 4.30902 87.0265 4.2788C92.7523 4.24859 98.3681 5.85521 103.217 8.91057C108.065 11.9659 111.945 16.3436 114.404 21.531C103.963 17.6486 97.3515 17.1213 95.7937 17.0566L105.318 26.4066C110.808 27.5674 116.218 29.0803 121.515 30.9361C134.552 35.4331 145.892 34.6858 150.988 33.9708L131.959 85.8652H131.556C131.423 85.8653 131.294 85.9024 131.182 85.9723C131.07 86.0422 130.979 86.1421 130.921 86.2608C130.862 86.3795 130.837 86.5122 130.85 86.6441C130.862 86.776 130.911 86.9017 130.991 87.0072C135.658 93.0896 143.731 97.1144 152.923 97.1144C162.115 97.1144 170.181 93.0896 174.855 87.0072C174.94 86.9017 174.993 86.774 175.008 86.6392C175.022 86.5045 174.999 86.3683 174.939 86.2466C174.879 86.1249 174.786 86.0229 174.671 85.9524C174.555 85.882 174.422 85.8461 174.287 85.849ZM21.3351 85.849H2.68659L21.3351 34.9802V85.849ZM41.4608 85.849H22.8123V34.9802L41.4608 85.849ZM22.0737 31.1496C21.8843 30.4846 21.5381 29.8752 21.0643 29.3729C20.5904 28.8706 20.003 28.4901 19.3516 28.2637C20.0053 28.038 20.5952 27.6576 21.0713 27.1546C21.5474 26.6517 21.8957 26.0411 22.0866 25.3746C22.2775 26.0411 22.6258 26.6517 23.1019 27.1546C23.578 27.6576 24.1679 28.038 24.8216 28.2637C24.1654 28.4866 23.5728 28.8655 23.0943 29.368C22.6158 29.8706 22.2656 30.4818 22.0737 31.1496ZM152.188 85.849H133.526L152.175 34.9802L152.188 85.849ZM152.926 31.1496C152.735 30.4836 152.386 29.8737 151.91 29.3713C151.434 28.869 150.845 28.4891 150.191 28.2637C150.845 28.0373 151.434 27.6566 151.91 27.1538C152.386 26.651 152.735 26.0408 152.926 25.3746C153.117 26.0408 153.465 26.6512 153.94 27.154C154.416 27.6569 155.005 28.0375 155.658 28.2637C155.005 28.4888 154.415 28.8687 153.94 29.3711C153.464 29.8735 153.117 30.4836 152.926 31.1496ZM153.665 85.849V34.9802L172.31 85.849H153.665Z" fill="url(#paint3_linear_548_3582)"/>
<path d="M104.708 170.3H70.1593V174.882H104.708V170.3Z" fill="url(#paint4_linear_548_3582)"/>
<path d="M109.33 179.46H65.5406V184.041H109.33V179.46Z" fill="url(#paint5_linear_548_3582)"/>
<path d="M70.2076 56.9739V61.5551H70.2334H104.783V56.9739H104.757H70.2076Z" fill="url(#paint6_linear_548_3582)"/>
<path d="M70.2334 47.8147H65.5858V52.3959H70.2334H104.783H109.375V47.8147H104.783H70.2334Z" fill="url(#paint7_linear_548_3582)"/>
<path d="M91.6202 152.548V131.124H70.2625V165.742H104.754V157.492H78.4837V152.548H91.6202ZM78.4837 139.374H83.3958V144.295H78.4837V139.374Z" fill="url(#paint8_linear_548_3582)"/>
<path d="M104.754 65.2466H83.3958V73.4966H96.5291V78.424H83.3958V113.022H91.6203V86.6708H96.5291V117.95H78.4837V78.424H70.2593V126.2H96.5291V152.548H104.754V65.2466Z" fill="url(#paint9_linear_548_3582)"/>
<path d="M78.4869 65.2466H70.2625V73.4966H78.4869V65.2466Z" fill="url(#paint10_linear_548_3582)"/>
<path d="M37.3712 197.849C35.7972 198.192 35.5231 198.457 35.4779 200.039C35.4521 200.722 35.407 201.246 35.407 203.53V212.955H34.9006L24.4733 200.266V206.484C24.4733 208.674 24.5023 209.367 24.541 210.127C24.6184 211.631 24.8378 212.01 26.8761 212.311V212.634H21.5544V212.311C23.2864 212.007 23.538 211.706 23.6154 210.166C23.6509 209.409 23.7154 208.516 23.7154 206.484V200.104C23.7271 199.697 23.6009 199.298 23.3574 198.972C22.7704 198.182 22.2543 198.001 21.2867 197.849V197.526H25.3119L34.6652 208.649V203.53C34.6652 201.246 34.6136 200.738 34.5813 200.039C34.5039 198.457 34.0491 198.098 32.0624 197.849V197.526H37.3647L37.3712 197.849Z" fill="#C8A45D"/>
<path d="M53.1008 212.651V212.327C54.5909 212.004 54.7296 211.787 54.3587 210.709C54.0716 209.859 53.6136 208.477 53.0686 206.953H48.6564C48.221 208.17 47.8243 209.266 47.5211 210.189C46.9954 211.758 47.2373 211.952 49.1692 212.314V212.638H44.1862V212.314C45.6375 212.065 45.973 211.813 46.8019 209.7L51.6172 197.309L52.1397 197.231C53.5943 201.395 55.1037 205.523 56.6551 209.69C57.4356 211.851 57.6839 212.004 59.1159 212.314V212.638L53.1008 212.651ZM50.9108 200.725C50.1819 202.666 49.5917 204.413 48.9176 206.225H52.788L50.9108 200.725Z" fill="#C8A45D"/>
<path d="M82.2638 197.849C80.4899 198.098 80.3286 198.302 80.3286 200.35V209.826C80.3286 211.877 80.5092 212.026 82.2638 212.311V212.634H75.9616V212.311C77.7516 212.055 77.8774 211.829 77.8774 209.826V204.815H70.8399V209.826C70.8399 211.858 71.0366 212.039 72.775 212.311V212.634H66.4761V212.311C68.2306 212.078 68.3919 211.874 68.3919 209.826V200.35C68.3919 198.244 68.208 198.127 66.4761 197.849V197.526H72.7783V197.849C71.0334 198.121 70.8431 198.276 70.8431 200.35V204.103H77.8806V200.35C77.8806 198.299 77.6968 198.105 75.9648 197.849V197.526H82.267L82.2638 197.849Z" fill="#C8A45D"/>
<path d="M90.7914 197.509H97.0613V197.833C95.2842 198.156 95.1261 198.308 95.1261 200.398V204.653C95.564 204.447 95.9633 204.167 96.3066 203.825C97.8401 202.4 99.2967 200.895 100.67 199.315C101.438 198.428 101.315 198.234 100.103 197.946L99.5899 197.839V197.516H104.873V197.839C103.131 198.095 102.654 198.36 101.438 199.544C100.222 200.728 98.7191 202.233 97.2452 203.75C98.9352 205.915 101.148 208.642 102.67 210.383C103.976 211.851 104.344 212.097 105.612 212.291V212.615H101.344C99.7318 210.651 97.4935 207.824 96.0292 205.97C95.5422 205.323 95.3261 205.096 95.1229 205.019V209.677C95.1229 211.835 95.31 211.91 97.0581 212.266V212.589H90.7914V212.266C92.5072 211.965 92.704 211.839 92.704 209.677V200.431C92.704 198.299 92.5201 198.143 90.7914 197.843V197.509Z" fill="#C8A45D"/>
<path d="M127.201 197.849C125.431 198.082 125.398 198.638 125.327 199.683C125.289 200.331 125.237 201.152 125.237 203.016V205.895C125.237 208.244 125.018 210.075 123.718 211.466C122.702 212.528 121.283 213 119.525 213C118.058 213 116.622 212.676 115.584 211.816C114.265 210.735 113.807 209.283 113.807 206.769V200.622C113.807 198.357 113.668 198.131 111.936 197.843V197.519H118.116V197.843C116.352 198.166 116.248 198.354 116.248 200.622V206.846C116.248 210.082 117.655 211.813 120.493 211.813C123.573 211.813 124.479 210.053 124.479 205.934V203.003C124.479 201.146 124.441 200.305 124.379 199.59C124.295 198.435 124.057 198.03 122.054 197.843V197.519H127.195L127.201 197.849Z" fill="#C8A45D"/>
<path d="M147.369 212.651V212.327C149.098 212.004 149.188 211.822 149.214 209.415L149.282 199.518C147.437 203.682 143.921 211.641 143.544 212.651H143.221C142.86 211.68 140.035 204.734 137.99 199.852C137.667 207.578 137.651 209.787 137.667 210.619C137.7 211.741 138.145 212.049 139.925 212.311V212.634H134.623V212.311C136.235 212.088 136.558 211.683 136.69 210.658C136.797 209.816 136.88 208.535 137.4 199.538C137.429 198.833 137.261 198.066 135.232 197.849V197.526H139.48L144.431 208.794L149.611 197.526H153.71V197.849C151.749 198.173 151.585 198.37 151.601 200.544L151.678 209.415C151.701 211.754 151.836 211.978 153.71 212.327V212.651H147.369Z" fill="#C8A45D"/>
</g>
<defs>
<linearGradient id="paint0_linear_548_3582" x1="70.2334" y1="40.9461" x2="104.783" y2="40.9461" gradientUnits="userSpaceOnUse">
<stop stop-color="#C4A15B"/>
<stop offset="0.29" stop-color="#C6A35D"/>
<stop offset="0.39" stop-color="#CDA964"/>
<stop offset="0.47" stop-color="#D8B36F"/>
<stop offset="0.5" stop-color="#E0BA77"/>
<stop offset="0.53" stop-color="#D8B36F"/>
<stop offset="0.61" stop-color="#CDA964"/>
<stop offset="0.71" stop-color="#C6A35D"/>
<stop offset="1" stop-color="#C4A15B"/>
</linearGradient>
<linearGradient id="paint1_linear_548_3582" x1="58.8773" y1="28.2055" x2="116.139" y2="28.2055" gradientUnits="userSpaceOnUse">
<stop stop-color="#C4A15B"/>
<stop offset="0.29" stop-color="#C6A35D"/>
<stop offset="0.39" stop-color="#CDA964"/>
<stop offset="0.47" stop-color="#D8B36F"/>
<stop offset="0.5" stop-color="#E0BA77"/>
<stop offset="0.53" stop-color="#D8B36F"/>
<stop offset="0.61" stop-color="#CDA964"/>
<stop offset="0.71" stop-color="#C6A35D"/>
<stop offset="1" stop-color="#C4A15B"/>
</linearGradient>
<linearGradient id="paint2_linear_548_3582" x1="81.4767" y1="29.8716" x2="93.5425" y2="29.8716" gradientUnits="userSpaceOnUse">
<stop stop-color="#C4A15B"/>
<stop offset="0.29" stop-color="#C6A35D"/>
<stop offset="0.39" stop-color="#CDA964"/>
<stop offset="0.47" stop-color="#D8B36F"/>
<stop offset="0.5" stop-color="#E0BA77"/>
<stop offset="0.53" stop-color="#D8B36F"/>
<stop offset="0.61" stop-color="#CDA964"/>
<stop offset="0.71" stop-color="#C6A35D"/>
<stop offset="1" stop-color="#C4A15B"/>
</linearGradient>
<linearGradient id="paint3_linear_548_3582" x1="-5.59916e-05" y1="48.5491" x2="175" y2="48.5491" gradientUnits="userSpaceOnUse">
<stop stop-color="#C4A15B"/>
<stop offset="0.29" stop-color="#C6A35D"/>
<stop offset="0.39" stop-color="#CDA964"/>
<stop offset="0.47" stop-color="#D8B36F"/>
<stop offset="0.5" stop-color="#E0BA77"/>
<stop offset="0.53" stop-color="#D8B36F"/>
<stop offset="0.61" stop-color="#CDA964"/>
<stop offset="0.71" stop-color="#C6A35D"/>
<stop offset="1" stop-color="#C4A15B"/>
</linearGradient>
<linearGradient id="paint4_linear_548_3582" x1="70.1593" y1="172.591" x2="104.708" y2="172.591" gradientUnits="userSpaceOnUse">
<stop stop-color="#C4A15B"/>
<stop offset="0.29" stop-color="#C6A35D"/>
<stop offset="0.39" stop-color="#CDA964"/>
<stop offset="0.47" stop-color="#D8B36F"/>
<stop offset="0.5" stop-color="#E0BA77"/>
<stop offset="0.53" stop-color="#D8B36F"/>
<stop offset="0.61" stop-color="#CDA964"/>
<stop offset="0.71" stop-color="#C6A35D"/>
<stop offset="1" stop-color="#C4A15B"/>
</linearGradient>
<linearGradient id="paint5_linear_548_3582" x1="65.5406" y1="181.75" x2="109.33" y2="181.75" gradientUnits="userSpaceOnUse">
<stop stop-color="#C4A15B"/>
<stop offset="0.29" stop-color="#C6A35D"/>
<stop offset="0.39" stop-color="#CDA964"/>
<stop offset="0.47" stop-color="#D8B36F"/>
<stop offset="0.5" stop-color="#E0BA77"/>
<stop offset="0.53" stop-color="#D8B36F"/>
<stop offset="0.61" stop-color="#CDA964"/>
<stop offset="0.71" stop-color="#C6A35D"/>
<stop offset="1" stop-color="#C4A15B"/>
</linearGradient>
<linearGradient id="paint6_linear_548_3582" x1="70.2044" y1="59.2645" x2="104.783" y2="59.2645" gradientUnits="userSpaceOnUse">
<stop stop-color="#C4A15B"/>
<stop offset="0.29" stop-color="#C6A35D"/>
<stop offset="0.39" stop-color="#CDA964"/>
<stop offset="0.47" stop-color="#D8B36F"/>
<stop offset="0.5" stop-color="#E0BA77"/>
<stop offset="0.53" stop-color="#D8B36F"/>
<stop offset="0.61" stop-color="#CDA964"/>
<stop offset="0.71" stop-color="#C6A35D"/>
<stop offset="1" stop-color="#C4A15B"/>
</linearGradient>
<linearGradient id="paint7_linear_548_3582" x1="65.5858" y1="50.1053" x2="109.375" y2="50.1053" gradientUnits="userSpaceOnUse">
<stop stop-color="#C4A15B"/>
<stop offset="0.29" stop-color="#C6A35D"/>
<stop offset="0.39" stop-color="#CDA964"/>
<stop offset="0.47" stop-color="#D8B36F"/>
<stop offset="0.5" stop-color="#E0BA77"/>
<stop offset="0.53" stop-color="#D8B36F"/>
<stop offset="0.61" stop-color="#CDA964"/>
<stop offset="0.71" stop-color="#C6A35D"/>
<stop offset="1" stop-color="#C4A15B"/>
</linearGradient>
<linearGradient id="paint8_linear_548_3582" x1="70.2625" y1="148.426" x2="104.754" y2="148.426" gradientUnits="userSpaceOnUse">
<stop stop-color="#C4A15B"/>
<stop offset="0.29" stop-color="#C6A35D"/>
<stop offset="0.39" stop-color="#CDA964"/>
<stop offset="0.47" stop-color="#D8B36F"/>
<stop offset="0.5" stop-color="#E0BA77"/>
<stop offset="0.53" stop-color="#D8B36F"/>
<stop offset="0.61" stop-color="#CDA964"/>
<stop offset="0.71" stop-color="#C6A35D"/>
<stop offset="1" stop-color="#C4A15B"/>
</linearGradient>
<linearGradient id="paint9_linear_548_3582" x1="70.2625" y1="108.897" x2="104.754" y2="108.897" gradientUnits="userSpaceOnUse">
<stop stop-color="#C4A15B"/>
<stop offset="0.29" stop-color="#C6A35D"/>
<stop offset="0.39" stop-color="#CDA964"/>
<stop offset="0.47" stop-color="#D8B36F"/>
<stop offset="0.5" stop-color="#E0BA77"/>
<stop offset="0.53" stop-color="#D8B36F"/>
<stop offset="0.61" stop-color="#CDA964"/>
<stop offset="0.71" stop-color="#C6A35D"/>
<stop offset="1" stop-color="#C4A15B"/>
</linearGradient>
<linearGradient id="paint10_linear_548_3582" x1="73.2232" y1="69.378" x2="91.3396" y2="69.2944" gradientUnits="userSpaceOnUse">
<stop stop-color="#C4A15B"/>
<stop offset="0.29" stop-color="#C6A35D"/>
<stop offset="0.39" stop-color="#CDA964"/>
<stop offset="0.47" stop-color="#D8B36F"/>
<stop offset="0.5" stop-color="#E0BA77"/>
<stop offset="0.53" stop-color="#D8B36F"/>
<stop offset="0.61" stop-color="#CDA964"/>
<stop offset="0.71" stop-color="#C6A35D"/>
<stop offset="1" stop-color="#C4A15B"/>
</linearGradient>
<clipPath id="clip0_548_3582">
<rect width="175" height="213" fill="white"/>
</clipPath>
</defs>
</svg>
