<svg width="137" height="138" viewBox="0 0 137 138" fill="none" xmlns="http://www.w3.org/2000/svg">
<circle cx="70.3718" cy="65.1311" r="46.4153" fill="#C8A45D"/>
<path fill-rule="evenodd" clip-rule="evenodd" d="M82.2266 55.0074L70.7461 50.2479C70.4585 50.1287 70.1353 50.1286 69.8477 50.2479L58.3673 55.0074C57.93 55.1887 57.645 55.615 57.645 56.0877V61.8735C57.645 69.8402 62.4673 77.0065 69.8542 80.0171C70.138 80.1327 70.4558 80.1327 70.7396 80.0171C78.1264 77.0065 82.9488 69.8403 82.9488 61.8735V56.0877C82.9488 55.615 82.6639 55.1887 82.2266 55.0074ZM69.6172 66.7589L75.5362 60.8488C76.0739 60.3119 76.9458 60.3118 77.4836 60.8488C78.0214 61.3858 78.0214 62.2564 77.4836 62.7934L70.5909 69.6758C70.053 70.2129 69.1812 70.2127 68.6435 69.6758L64.795 65.833C64.2571 65.296 64.2571 64.4254 64.795 63.8884C65.3328 63.3515 66.2047 63.3514 66.7424 63.8884L69.6172 66.7589Z" fill="white"/>
<circle opacity="0.2" cx="130.262" cy="26.2022" r="6.7377" fill="#C8A45D"/>
<circle opacity="0.2" cx="34.4369" cy="131.011" r="6.7377" fill="#C8A45D"/>
<circle cx="117.161" cy="114.915" r="3.36885" fill="#C8A45D"/>
<circle cx="9.35811" cy="70.7459" r="3.36885" fill="#C8A45D"/>
<circle opacity="0.2" cx="6.7377" cy="6.7377" r="6.7377" fill="#C8A45D"/>
</svg>
