<svg width="24" height="24" viewBox="0 0 24 24" fill="none" xmlns="http://www.w3.org/2000/svg">
<path d="M21.06 11.82L20.9 11.6C20.62 11.26 20.29 10.99 19.91 10.79C19.4 10.5 18.82 10.35 18.22 10.35H5.77001C5.17001 10.35 4.60001 10.5 4.08001 10.79C3.69001 11 3.34001 11.29 3.05001 11.65C2.48001 12.38 2.21001 13.28 2.30001 14.18L2.67001 18.85C2.80001 20.26 2.97001 22 6.14001 22H17.86C21.03 22 21.19 20.26 21.33 18.84L21.7 14.19C21.79 13.35 21.57 12.51 21.06 11.82ZM14.39 17.34H9.60001C9.21001 17.34 8.90001 17.02 8.90001 16.64C8.90001 16.26 9.21001 15.94 9.60001 15.94H14.39C14.78 15.94 15.09 16.26 15.09 16.64C15.09 17.03 14.78 17.34 14.39 17.34Z" fill="#C8A45D"/>
<path opacity="0.2" d="M3.38 11.31C3.6 11.11 3.82 10.93 4.08 10.79C4.59 10.5 5.17 10.35 5.77 10.35H18.23C18.83 10.35 19.4 10.5 19.92 10.79C20.18 10.93 20.41 11.11 20.62 11.32V10.79V9.82C20.62 6.25 19.53 5.16 15.96 5.16H13.58C13.14 5.16 13.13 5.15 12.87 4.81L11.67 3.2C11.1 2.46 10.65 2 9.22001 2H8.04C4.47 2 3.38 3.09 3.38 6.66V10.8V11.31Z" fill="#C8A45D"/>
</svg>
