<svg width="24" height="24" viewBox="0 0 24 24" fill="none" xmlns="http://www.w3.org/2000/svg">
<path d="M20.54 19.04C20.39 19.19 20.2 19.26 20.01 19.26C19.82 19.26 19.63 19.19 19.48 19.04L14.53 14.09L15.06 13.56L15.59 13.03L20.54 17.98C20.83 18.27 20.83 18.75 20.54 19.04Z" fill="#C8A45D"/>
<path opacity="0.2" d="M6.46999 9.28L12.27 15.08C12.66 15.47 12.66 16.1 12.27 16.49L11.37 17.4C10.56 18.2 9.27998 18.2 8.47998 17.4L4.13999 13.06C3.34999 12.27 3.34999 10.98 4.13999 10.18L5.04999 9.27C5.43999 8.89 6.07999 8.89 6.46999 9.28Z" fill="#C8A45D"/>
<path d="M18.59 10.19L14.78 13.99C14.38 14.39 13.74 14.39 13.34 13.99L7.57002 8.22C7.17002 7.82 7.17002 7.18 7.57002 6.78L11.38 2.97C12.17 2.18 13.46 2.18 14.26 2.97L18.6 7.31C19.38 8.1 19.38 9.38 18.59 10.19Z" fill="#C8A45D"/>
<path d="M8 21.75H2C1.59 21.75 1.25 21.41 1.25 21C1.25 20.59 1.59 20.25 2 20.25H8C8.41 20.25 8.75 20.59 8.75 21C8.75 21.41 8.41 21.75 8 21.75Z" fill="#C8A45D"/>
</svg>
